PathFileType	4	(X/Y/Z)	D:\TRACE\v60_Jaco2_6-2-23\JustBodyDRS_Motion2_1-v60.trc
DataRate	CameraRate	NumFrames	NumMarkers	Units	OrigDataRate	OrigDataStartFrame	OrigNumFrames
100.00	100.00	      21	9	mm	100.00	1	      7009
Frame#	Time	front left toe			Front right toe			aft left toe			aft right toe			Arm			FL body			FR body			AL Body			AR Body			
		X1	Y1	Z1	X2	Y2	Z2	X3	Y3	Z3	X4	Y4	Z4	X5	Y5	Z5	X6	Y6	Z6	X7	Y7	Z7	X8	Y8	Z8	X9	Y9	Z9	

1	0.000	-195.14708	19.61089	-198.66574	206.64223	18.07878	-258.42398	-114.00505	16.55120	401.13214	291.25830	19.43577	379.72565	-114.27994	1216.95959	-350.01083	-89.03455	585.54773	-343.57013	69.87234	584.91254	-365.44193	41.58562	589.43402	594.32153	196.04297	582.67792	572.06024	
2	0.010	-195.08014	19.57088	-198.69008	206.70668	18.15582	-258.41544	-113.97915	16.55078	401.12759	291.30954	19.44032	379.74585	-114.34733	1216.95300	-350.05743	-89.07958	585.57788	-343.58734	69.82425	584.92444	-365.44220	41.60814	589.44366	594.31091	196.03326	582.65240	572.03638	
3	0.020	-195.11783	19.58552	-198.64221	206.70830	18.10860	-258.38611	-113.97336	16.50110	401.14053	291.17737	19.35395	379.75690	-114.35504	1216.92249	-350.02658	-89.04630	585.55231	-343.54871	69.74569	584.95441	-365.46136	41.58229	589.38037	594.33630	196.02678	582.65161	572.04773	
4	0.030	-195.16237	19.63538	-198.62938	206.64346	18.11980	-258.43381	-113.98938	16.50244	401.14041	291.19827	19.39049	379.75500	-114.29790	1216.96533	-349.98615	-89.07875	585.58606	-343.57855	69.81165	584.90857	-365.45554	41.54681	589.42548	594.33386	195.62697	582.10510	571.80347	
5	0.040	-195.16750	19.61227	-198.65424	206.65509	18.10025	-258.43420	-113.98927	16.50753	401.11566	291.14850	19.36564	379.74374	-114.36920	1217.05286	-350.07205	-89.06850	585.57855	-343.56735	69.76046	584.92932	-365.47690	41.60107	589.41632	594.30896	196.06671	582.68237	572.04419	
6	0.050	-195.06468	19.57829	-198.64107	206.66893	18.10589	-258.42566	-114.03612	16.51358	401.08456	291.30478	19.46570	379.70932	-114.20862	1217.01477	-349.99133	-89.04526	585.53058	-343.57562	69.83323	584.90796	-365.45148	41.58278	589.45636	594.29846	195.68150	582.10126	571.77826	
7	0.060	-195.18234	19.63273	-198.61722	206.68614	18.12052	-258.39096	-113.97808	16.53357	401.13962	291.14011	19.34758	379.77283	-114.32161	1216.95215	-350.03958	-89.11962	585.56702	-343.63742	69.79987	584.93463	-365.47830	41.58907	589.40015	594.33911	196.04758	582.65247	572.03784	
8	0.070	-195.13559	19.61030	-198.66586	206.69708	18.10244	-258.40018	-114.01083	16.55349	401.14655	291.18417	19.36901	379.76349	-114.26507	1216.86157	-349.96500	-89.11360	585.55939	-343.60315	69.76074	584.92755	-365.49811	41.58212	589.37421	594.32904	195.64157	582.08142	571.78497	
9	0.080	-195.15840	19.60604	-198.66022	206.68002	18.10558	-258.39651	-113.98906	16.51109	401.13126	291.14383	19.33642	379.73364	-114.42419	1216.91064	-350.04141	-89.08608	585.55170	-343.63483	69.75776	584.93439	-365.46576	41.53033	589.40424	594.31458	196.05586	582.62286	572.03864	
10	0.090	-195.08864	19.59401	-198.70378	206.63591	18.11343	-258.42142	-113.98186	16.50489	401.16422	291.19443	19.39357	379.72812	-114.36547	1216.94678	-350.03323	-89.14365	585.54211	-343.63242	69.81132	584.89551	-365.49249	41.58797	589.43176	594.30585	195.63312	582.06769	571.77991	
11	0.100	-195.09625	19.56888	-198.68690	206.68745	18.09941	-258.40320	-114.00646	16.54990	401.14536	291.28363	19.46048	379.74191	-114.42204	1217.02283	-350.13907	-89.10680	585.53174	-343.62680	69.80542	584.88940	-365.47803	41.60084	589.46344	594.27386	195.66478	582.09094	571.75958	
12	0.110	-195.12564	19.57687	-198.67712	206.68489	18.10102	-258.41702	-113.97833	16.48689	401.16486	291.26178	19.43212	379.73892	-114.31165	1217.00769	-350.07364	-89.13602	585.55994	-343.61093	69.75907	584.90942	-365.50351	41.60018	589.38458	594.29767	196.04944	582.63220	572.01013	
13	0.120	-195.18813	19.66577	-198.67262	206.68011	18.10371	-258.40503	-113.99380	16.53114	401.12244	291.20599	19.40866	379.73712	-114.38012	1216.93921	-350.10287	-89.14376	585.55231	-343.63635	69.73445	584.93250	-365.49725	41.56103	589.40283	594.29553	196.04526	582.64368	572.02649	
14	0.130	-195.25677	19.67890	-198.64482	206.69299	18.06650	-258.39905	-114.02354	16.53094	401.11450	291.18161	19.36783	379.70361	-114.44263	1216.93579	-350.09329	-89.16940	585.54346	-343.64075	69.80865	584.88080	-365.51013	41.51368	589.46149	594.28412	196.04103	582.67023	572.01306	
15	0.140	-195.14688	19.59041	-198.66528	206.69212	18.11087	-258.40414	-114.03799	16.53469	401.10010	291.22940	19.40293	379.74191	-114.43158	1216.91248	-350.04132	-89.14265	585.53235	-343.64709	69.75499	584.93634	-365.50153	41.45748	589.44708	594.27850	196.06395	582.68909	572.02899	
16	0.150	-195.18886	19.63461	-198.65358	206.66643	18.10822	-258.43402	-114.00573	16.50048	401.12311	291.31638	19.42373	379.72638	-114.35492	1216.98621	-350.06384	-89.18919	585.54279	-343.62601	69.77165	584.90588	-365.47525	41.55592	589.41864	594.30493	195.63583	582.13562	571.75922	
17	0.160	-195.12436	19.60120	-198.67778	206.66827	18.14547	-258.44229	-113.98956	16.50108	401.10059	291.30307	19.50624	379.78030	-114.45352	1217.03442	-350.14877	-89.15367	585.53101	-343.63571	69.72658	584.90778	-365.49161	41.55903	589.45441	594.31451	196.01949	582.69489	572.00714	
18	0.170	-195.14279	19.61258	-198.65678	206.63986	18.13372	-258.44113	-113.99617	16.50496	401.15222	291.26547	19.44954	379.72934	-114.42715	1216.91553	-350.10587	-89.16983	585.56970	-343.65643	69.74063	584.91718	-365.52075	41.54237	589.47339	594.24109	195.66466	582.11670	571.76422	
19	0.180	-195.25372	19.63991	-198.66702	206.68031	18.10015	-258.42825	-114.00034	16.52302	401.15427	291.11816	19.31817	379.73950	-114.53765	1216.87061	-350.02295	-89.20200	585.54352	-343.64087	69.73852	584.93500	-365.49094	41.43892	589.42554	594.30145	196.01819	582.69403	572.04883	
20	0.190	-195.27133	19.66264	-198.66837	206.64940	18.12377	-258.43597	-114.01041	16.53378	401.11121	291.11716	19.30946	379.69321	-114.57451	1216.87903	-350.09540	-89.16331	585.51520	-343.64651	69.77943	584.91541	-365.49881	41.50380	589.39624	594.30139	195.59669	582.07019	571.77649	
21	0.200	-195.21046	19.62485	-198.64810	206.62796	18.10165	-258.42090	-114.01107	16.57070	401.16556	291.21408	19.42570	379.70175	-114.53185	1216.95093	-350.13550	-89.20889	585.53894	-343.66943	69.73184	584.91730	-365.51968	41.49605	589.43335	594.30231	195.59401	582.12750	571.75781	
